<svg width="321" height="320" viewBox="0 0 321 320" fill="none" xmlns="http://www.w3.org/2000/svg">
<path d="M270.401 56.5824C269.294 55.4816 268.155 54.4128 266.971 53.3824C242.465 31.7952 209.947 20.512 178.203 15.9488C146.049 11.3216 111.943 15.5136 84.2378 33.664C81.1445 35.6949 78.1578 37.8709 75.2778 40.192C52.1866 58.8608 41.1914 84.992 38.1578 114.342C35.8666 136.774 24.8906 154.336 17.3578 175.066C9.16582 197.613 9.26182 225.338 20.065 247.04C32.865 272.794 58.5034 285.958 84.5834 293.965C128.622 307.494 177.972 307.45 220.903 289.722C250.651 277.434 280.891 256.314 293.102 225.043C303.988 197.12 304.507 165.76 300.935 136.275C297.467 107.616 291.515 77.568 270.401 56.5824Z" fill="#FF9F43"/>
<path opacity="0.7" d="M270.401 56.5824C269.294 55.4816 268.155 54.4128 266.971 53.3824C242.465 31.7952 209.947 20.512 178.203 15.9488C146.049 11.3216 111.943 15.5136 84.2378 33.664C81.1445 35.6949 78.1578 37.8709 75.2778 40.192C52.1866 58.8608 41.1914 84.992 38.1578 114.342C35.8666 136.774 24.8906 154.336 17.3578 175.066C9.16582 197.613 9.26182 225.338 20.065 247.04C32.865 272.794 58.5034 285.958 84.5834 293.965C128.622 307.494 177.972 307.45 220.903 289.722C250.651 277.434 280.891 256.314 293.102 225.043C303.988 197.12 304.507 165.76 300.935 136.275C297.467 107.616 291.515 77.568 270.401 56.5824Z" fill="white"/>
<path d="M179.694 17.9584H100.679V132.704H179.694V17.9584Z" fill="#263238"/>
<path d="M179.687 133.03H100.679C100.595 133.03 100.513 132.997 100.453 132.937C100.393 132.877 100.359 132.795 100.359 132.71V17.9584C100.359 17.8735 100.393 17.7921 100.453 17.7321C100.513 17.6721 100.595 17.6384 100.679 17.6384H179.687C179.772 17.6384 179.854 17.6721 179.914 17.7321C179.974 17.7921 180.007 17.8735 180.007 17.9584V132.71C180.007 132.795 179.974 132.877 179.914 132.937C179.854 132.997 179.772 133.03 179.687 133.03ZM100.967 132.39H179.367V18.2784H100.999L100.967 132.39Z" fill="#263238"/>
<path d="M173.268 27.2896H107.099V123.379H173.268V27.2896Z" fill="white"/>
<path d="M173.268 123.699H107.099C107.014 123.699 106.932 123.665 106.872 123.605C106.812 123.545 106.779 123.464 106.779 123.379V27.2896C106.779 27.2047 106.812 27.1233 106.872 27.0633C106.932 27.0033 107.014 26.9696 107.099 26.9696H173.268C173.353 26.9696 173.435 27.0033 173.495 27.0633C173.555 27.1233 173.588 27.2047 173.588 27.2896V123.379C173.588 123.464 173.555 123.545 173.495 123.605C173.435 123.665 173.353 123.699 173.268 123.699ZM107.419 123.059H172.948V27.6096H107.419V123.059Z" fill="#263238"/>
<path d="M157.767 49.8048H122.606V100.864H157.767V49.8048Z" fill="#263238"/>
<path d="M157.761 101.184H122.606C122.521 101.184 122.44 101.15 122.38 101.09C122.32 101.03 122.286 100.949 122.286 100.864V49.8048C122.286 49.7199 122.32 49.6385 122.38 49.5785C122.44 49.5185 122.521 49.4848 122.606 49.4848H157.761C157.846 49.4848 157.927 49.5185 157.987 49.5785C158.047 49.6385 158.081 49.7199 158.081 49.8048V100.864C158.081 100.949 158.047 101.03 157.987 101.09C157.927 101.15 157.846 101.184 157.761 101.184ZM122.926 100.544H157.467V50.1248H122.907L122.926 100.544Z" fill="#263238"/>
<path d="M85.6586 79.1168H48.7562V132.71H85.6586V79.1168Z" fill="#263238"/>
<path d="M85.6587 133.03H48.7563C48.6714 133.03 48.59 132.997 48.53 132.937C48.47 132.877 48.4363 132.795 48.4363 132.71V79.1168C48.4363 79.0319 48.47 78.9506 48.53 78.8905C48.59 78.8305 48.6714 78.7968 48.7563 78.7968H85.6587C85.7436 78.7968 85.8249 78.8305 85.885 78.8905C85.945 78.9506 85.9787 79.0319 85.9787 79.1168V132.71C85.9787 132.795 85.945 132.877 85.885 132.937C85.8249 132.997 85.7436 133.03 85.6587 133.03ZM49.0763 132.39H85.3387V79.4368H49.0763V132.39Z" fill="#263238"/>
<path d="M82.6635 83.4688H51.7579V128.352H82.6635V83.4688Z" fill="white"/>
<path d="M82.6635 128.672H51.7579C51.673 128.672 51.5916 128.638 51.5316 128.578C51.4716 128.518 51.4379 128.437 51.4379 128.352V83.4688C51.4379 83.3839 51.4716 83.3025 51.5316 83.2425C51.5916 83.1825 51.673 83.1488 51.7579 83.1488H82.6635C82.7478 83.1504 82.8283 83.1847 82.8879 83.2443C82.9476 83.304 82.9818 83.3844 82.9835 83.4688V128.352C82.9835 128.394 82.9752 128.436 82.9591 128.474C82.943 128.513 82.9195 128.549 82.8897 128.578C82.86 128.608 82.8247 128.632 82.7859 128.648C82.7471 128.664 82.7055 128.672 82.6635 128.672ZM52.0779 128.032H82.3435V83.7888H52.0779V128.032Z" fill="#263238"/>
<path d="M75.4187 93.9904H58.9963V117.837H75.4187V93.9904Z" fill="#263238"/>
<path d="M75.4187 118.157H58.9963C58.9119 118.155 58.8315 118.121 58.7718 118.061C58.7121 118.002 58.6779 117.921 58.6763 117.837V93.9904C58.6763 93.9055 58.71 93.8241 58.77 93.7641C58.83 93.7041 58.9114 93.6704 58.9963 93.6704H75.4187C75.5035 93.6704 75.5849 93.7041 75.6449 93.7641C75.705 93.8241 75.7387 93.9055 75.7387 93.9904V117.837C75.7387 117.922 75.705 118.003 75.6449 118.063C75.5849 118.123 75.5035 118.157 75.4187 118.157ZM59.3163 117.517H75.0987V94.3104H59.3163V117.517Z" fill="#263238"/>
<path d="M79.1627 179.309C79.1627 178.854 84.6219 178.496 91.3227 178.502C98.0235 178.509 103.483 178.893 103.483 179.347C103.483 179.802 98.0299 180.154 91.3227 180.147C84.6155 180.141 79.1627 179.763 79.1627 179.309Z" fill="white"/>
<path d="M91.6427 180.48H91.3483C88.0843 180.48 85.0187 180.384 82.7083 180.224C78.8683 179.962 78.8683 179.648 78.8683 179.322C78.8683 178.989 78.8683 178.682 82.7083 178.426C85.0187 178.272 88.0779 178.202 91.3483 178.202C94.6187 178.202 97.6715 178.291 99.9819 178.451C103.822 178.72 103.822 179.027 103.822 179.36C103.822 179.693 103.822 180 99.9819 180.25C97.7483 180.384 94.7915 180.48 91.6427 180.48ZM80.1227 179.322C83.844 179.724 87.5865 179.898 91.3291 179.84C95.0732 179.912 98.8181 179.749 102.542 179.354C98.8185 178.951 95.0737 178.78 91.3291 178.842C87.5939 178.765 83.8576 178.921 80.1419 179.309L80.1227 179.322Z" fill="#263238"/>
<path d="M97.7739 181.434C99.305 178.214 101.241 175.203 103.534 172.474C107.515 167.622 113.851 160.128 114.593 157.754C115.336 155.379 113.147 159.731 105.313 164.506C97.3579 169.344 94.9835 182.733 94.9835 182.733L97.7739 181.434Z" fill="#FF9F43"/>
<path d="M94.5547 183.309L94.6635 182.701C94.7595 182.15 97.1531 169.12 105.14 164.256C108.181 162.417 110.987 160.216 113.499 157.702C114.331 156.883 114.555 156.666 114.855 156.851C115.156 157.037 115.028 157.421 114.887 157.875C114.215 160.013 109.23 166.054 105.223 170.912L103.777 172.672C101.509 175.384 99.5907 178.371 98.0683 181.562L98.0235 181.677L94.5547 183.309ZM114.19 157.92L113.947 158.157C111.404 160.709 108.558 162.94 105.473 164.8C98.7019 168.928 96.0011 179.52 95.4187 182.195L97.5307 181.197C99.0811 177.998 101.015 175 103.291 172.269L104.743 170.502C108.353 166.112 113.268 160.16 114.19 157.92Z" fill="#263238"/>
<path d="M93.9467 183.392C93.7923 183.394 93.6425 183.34 93.5249 183.24C93.4073 183.14 93.3298 183.001 93.3067 182.848C93.2619 182.566 92.3019 175.808 96.0139 165.907C99.6491 156.211 100.859 151.891 100.871 151.827C100.889 151.741 100.924 151.659 100.975 151.587C101.025 151.515 101.09 151.454 101.165 151.408C101.24 151.362 101.324 151.332 101.411 151.32C101.498 151.308 101.587 151.314 101.672 151.338C101.757 151.362 101.836 151.403 101.904 151.459C101.972 151.515 102.028 151.584 102.068 151.662C102.108 151.74 102.132 151.826 102.137 151.914C102.143 152.002 102.13 152.09 102.1 152.173C102.1 152.211 100.871 156.576 97.2107 166.342C93.6267 175.898 94.5611 182.573 94.5675 182.643C94.5913 182.81 94.5482 182.98 94.4475 183.115C94.3468 183.251 94.1967 183.341 94.0299 183.366L93.9467 183.392Z" fill="#263238"/>
<path d="M91.4443 184.128C91.288 184.129 91.1367 184.073 91.0188 183.971C90.9009 183.868 90.8246 183.726 90.8043 183.571C90.8043 183.45 89.0507 170.95 87.2011 166.515C85.3515 162.08 84.8651 160.8 84.8459 160.755C84.7975 160.599 84.8106 160.43 84.8825 160.284C84.9544 160.137 85.0797 160.023 85.2328 159.966C85.3858 159.909 85.5549 159.912 85.7055 159.976C85.8561 160.039 85.9767 160.158 86.0427 160.307C86.0427 160.307 86.5099 161.542 88.3787 166.029C90.2987 170.618 92.0011 182.886 92.0779 183.405C92.0896 183.488 92.0846 183.574 92.0633 183.655C92.0419 183.737 92.0045 183.814 91.9533 183.881C91.9022 183.948 91.8382 184.005 91.7651 184.047C91.692 184.089 91.6113 184.117 91.5275 184.128H91.4443Z" fill="#263238"/>
<path d="M87.7963 166.266C87.7963 166.266 90.2475 165.402 90.1579 161.709C90.0171 156.122 84.1355 154.79 84.1355 154.79L83.2267 156.256L81.4603 155.962C81.4603 155.962 80.5707 160.371 82.4779 163.757C82.9641 164.703 83.749 165.461 84.7108 165.915C85.6726 166.369 86.7572 166.492 87.7963 166.266Z" fill="#FF9F43"/>
<path d="M86.8299 166.682C85.881 166.693 84.9477 166.441 84.134 165.952C83.3203 165.464 82.6583 164.759 82.2219 163.917C80.3019 160.467 81.1339 156.083 81.1723 155.898L81.2363 155.59L83.0859 155.904L83.9819 154.426L84.2059 154.477C84.2699 154.477 90.3307 155.93 90.4779 161.702C90.5739 165.581 88.0139 166.534 87.9179 166.573H87.8859C87.5388 166.647 87.1848 166.683 86.8299 166.682ZM81.7483 156.326C81.5947 157.37 81.2427 160.864 82.7851 163.603C83.2303 164.483 83.9533 165.191 84.842 165.618C85.7306 166.045 86.7353 166.167 87.7003 165.965C87.9051 165.882 89.9211 165.011 89.8379 161.722C89.7227 156.986 85.3579 155.456 84.2891 155.155L83.4123 156.608L81.7483 156.326Z" fill="#263238"/>
<path d="M98.6891 160.845C98.6891 160.845 100.161 161.581 104.449 158.349C108.737 155.117 108.878 148.941 108.878 148.941L104.02 150.259L102.26 147.757L99.4635 149.37L96.2123 146.56C96.2123 146.56 92.3723 154.803 98.6891 160.845Z" fill="#FF9F43"/>
<path d="M99.1627 161.235C98.9438 161.25 98.7246 161.212 98.5227 161.126L98.4459 161.075C92.0459 154.944 95.8859 146.515 95.8859 146.432L96.0651 146.048L99.4443 148.979L102.299 147.328L104.097 149.888L109.153 148.518V148.947C109.153 149.21 108.942 155.347 104.603 158.605C101.665 160.845 99.9819 161.235 99.1627 161.235ZM98.8619 160.563C99.1115 160.627 100.622 160.832 104.238 158.093C107.687 155.482 108.379 150.81 108.513 149.37L103.873 150.65L102.145 148.205L99.4059 149.76L96.3403 147.104C95.7003 148.794 93.6267 155.52 98.8619 160.563Z" fill="#263238"/>
<path d="M94.1514 184.256C93.487 180.754 93.272 177.182 93.5114 173.626C93.8698 167.366 94.5674 157.574 93.7738 155.238C92.9802 152.902 93.7738 157.69 90.2666 166.163C86.7018 174.765 92.673 186.976 92.673 186.976L94.1514 184.256Z" fill="#FF9F43"/>
<path d="M92.6539 187.674L92.3787 187.117C92.1355 186.611 86.3819 174.675 89.9659 166.042C91.341 162.759 92.3082 159.32 92.8459 155.802C93.0379 154.65 93.0891 154.342 93.4411 154.31C93.7931 154.278 93.9211 154.669 94.0811 155.117C94.7979 157.248 94.3371 165.062 93.9659 171.347L93.8315 173.626C93.6047 177.152 93.8197 180.693 94.4715 184.166V184.288L92.6539 187.674ZM93.5371 155.59C93.5371 155.693 93.4987 155.808 93.4795 155.923C92.9313 159.486 91.9491 162.968 90.5547 166.291C87.5211 173.606 91.5915 183.757 92.6923 186.259L93.8123 184.211C93.1678 180.716 92.9529 177.154 93.1723 173.606L93.3067 171.328C93.6523 165.645 94.1067 157.939 93.5371 155.59Z" fill="#263238"/>
<path d="M91.0859 181.12C88.3849 178.794 85.9931 176.131 83.9691 173.197C80.3467 168.077 74.8043 159.974 72.7371 158.637C70.6699 157.299 74.2603 160.557 76.7819 169.376C79.3419 178.336 91.6171 184.173 91.6171 184.173L91.0859 181.12Z" fill="#FF9F43"/>
<path d="M92.0331 184.691L91.4763 184.429C90.9707 184.186 79.0411 178.419 76.4747 169.434C75.5043 166.011 74.118 162.72 72.3467 159.635C71.7835 158.618 71.6299 158.355 71.8859 158.099C72.1419 157.843 72.4875 158.099 72.8843 158.336C74.7659 159.558 79.2843 165.965 82.8875 171.136L84.2059 173.005C86.2142 175.907 88.5795 178.545 91.2459 180.858L91.3419 180.934L92.0331 184.691ZM72.7691 159.027L72.9355 159.322C74.721 162.45 76.1159 165.786 77.0891 169.254C79.2651 176.877 88.7691 182.291 91.1691 183.565L90.7723 181.261C88.0947 178.925 85.7151 176.268 83.6875 173.35L82.3691 171.482C79.1179 166.822 74.6827 160.512 72.7691 159.027Z" fill="#263238"/>
<path d="M103.668 179.36H103.527C103.399 179.808 97.9978 180.154 91.3674 180.147C84.8586 180.147 79.5402 179.782 79.2074 179.354C80.8072 181.796 81.9982 184.483 82.7338 187.309C83.2718 189.385 83.3366 191.556 82.9234 193.66C82.5102 195.765 81.6296 197.75 80.3466 199.469C77.4579 203.591 75.9377 208.516 76.001 213.549C76.001 224.954 83.1626 234.214 92.0394 234.227C100.916 234.24 108.129 225.005 108.142 213.6C108.142 207.686 106.222 202.349 103.131 198.579C101.617 196.717 100.609 194.495 100.207 192.129C99.8042 189.763 100.02 187.333 100.833 185.075C101.532 183.058 102.485 181.137 103.668 179.36Z" fill="#263238"/>
<path opacity="0.3" d="M81.7099 224.442C81.5607 223.427 81.7176 222.39 82.1604 221.465C82.6033 220.539 83.312 219.767 84.1961 219.247C85.0801 218.726 86.0993 218.481 87.1233 218.542C88.1474 218.604 89.1298 218.97 89.945 219.593C90.7603 220.215 91.3713 221.067 91.6999 222.039C92.0286 223.011 92.0601 224.059 91.7902 225.048C91.5204 226.038 90.9616 226.925 90.1851 227.596C89.4087 228.266 88.45 228.69 87.4315 228.813C86.7686 228.903 86.0944 228.861 85.4477 228.69C84.801 228.519 84.1945 228.222 83.6629 227.815C83.1313 227.409 82.6851 226.902 82.35 226.323C82.0148 225.744 81.7973 225.105 81.7099 224.442Z" fill="white"/>
<path d="M85.0506 229.12C84.9803 228.648 85.0523 228.165 85.2577 227.734C85.463 227.303 85.7922 226.943 86.2033 226.7C86.6143 226.457 87.0885 226.342 87.5652 226.37C88.0418 226.398 88.4993 226.568 88.8791 226.857C89.2588 227.147 89.5437 227.543 89.6971 227.995C89.8505 228.447 89.8656 228.935 89.7404 229.395C89.6153 229.856 89.3555 230.269 88.9943 230.582C88.6332 230.894 88.187 231.091 87.713 231.149C87.4049 231.191 87.0914 231.172 86.7907 231.093C86.4899 231.014 86.2077 230.876 85.9603 230.688C85.7129 230.499 85.5052 230.264 85.3491 229.995C85.193 229.725 85.0916 229.428 85.0506 229.12Z" fill="white"/>
<path d="M79.1626 179.661C79.1148 179.66 79.0679 179.648 79.0256 179.626C78.9833 179.604 78.9469 179.572 78.9194 179.533C78.9041 179.509 78.8912 179.483 78.881 179.456C78.8783 179.441 78.8783 179.426 78.881 179.411C78.8607 179.326 78.8748 179.237 78.9205 179.162C78.9661 179.088 79.0394 179.035 79.1242 179.014C79.2091 178.994 79.2986 179.008 79.373 179.054C79.4474 179.099 79.5007 179.173 79.521 179.258C79.5396 179.321 79.5378 179.388 79.516 179.45C79.4941 179.512 79.4534 179.566 79.3994 179.603C79.3301 179.651 79.2459 179.671 79.1626 179.661Z" fill="#263238"/>
<path d="M193.307 242.259H74.5802C74.5802 242.259 72.7306 249.645 73.345 263.181C73.9594 276.717 80.1162 294.861 79.1946 301.933V309.933H86.8746V262.867H181.006V309.933H188.686V301.933C187.764 294.893 193.915 276.71 194.529 263.181C195.143 249.651 193.307 242.259 193.307 242.259Z" fill="white"/>
<path d="M188.692 310.253H181.012C180.927 310.253 180.846 310.219 180.786 310.159C180.726 310.099 180.692 310.018 180.692 309.933V263.213H87.201V309.933C87.201 310.018 87.1673 310.099 87.1073 310.159C87.0473 310.219 86.9659 310.253 86.881 310.253H79.201C79.1161 310.253 79.0347 310.219 78.9747 310.159C78.9147 310.099 78.881 310.018 78.881 309.933V301.933C79.3418 298.342 78.0042 291.994 76.4554 284.653C74.9962 277.722 73.3386 269.869 73.0314 263.206C72.3914 249.766 74.2538 242.272 74.273 242.195C74.2913 242.126 74.3319 242.064 74.3886 242.02C74.4453 241.977 74.5149 241.952 74.5866 241.952H193.307C193.378 241.952 193.448 241.977 193.505 242.02C193.561 242.064 193.602 242.126 193.62 242.195C193.62 242.272 195.47 249.779 194.855 263.206C194.555 269.869 192.897 277.722 191.438 284.653C189.889 292.006 188.545 298.355 189.012 301.933V309.971C189.003 310.049 188.965 310.121 188.906 310.173C188.847 310.225 188.771 310.253 188.692 310.253ZM181.326 309.613H188.366V301.933C187.892 298.317 189.243 291.917 190.804 284.506C192.263 277.6 193.908 269.786 194.209 263.162C194.759 251.181 193.345 243.962 193.044 242.579H74.8362C74.529 243.962 73.121 251.181 73.665 263.162C73.9658 269.779 75.585 277.6 77.0762 284.506C78.6378 291.917 79.9882 298.317 79.5082 301.978V309.613H86.5482V262.893C86.5482 262.808 86.5819 262.727 86.6419 262.667C86.7019 262.607 86.7833 262.573 86.8682 262.573H181.006C181.09 262.574 181.171 262.609 181.23 262.668C181.29 262.728 181.324 262.808 181.326 262.893V309.613Z" fill="#263238"/>
<path d="M193.307 242.259H74.5802C74.3021 243.478 74.0885 244.711 73.9402 245.952H193.947C193.62 243.52 193.307 242.259 193.307 242.259Z" fill="#263238"/>
<path d="M193.947 246.272H73.9402C73.8941 246.272 73.8485 246.263 73.8065 246.244C73.7644 246.225 73.7269 246.198 73.6965 246.163C73.6661 246.128 73.6436 246.088 73.6304 246.043C73.6172 245.999 73.6138 245.953 73.6202 245.907C73.9466 243.488 74.2602 242.24 74.2602 242.182C74.2785 242.113 74.3191 242.052 74.3758 242.008C74.4325 241.964 74.5021 241.94 74.5738 241.939H193.307C193.378 241.94 193.448 241.964 193.505 242.008C193.561 242.052 193.602 242.113 193.62 242.182C193.62 242.24 193.94 243.462 194.26 245.907C194.266 245.953 194.262 245.999 194.249 246.043C194.235 246.087 194.213 246.128 194.183 246.163C194.154 246.197 194.117 246.224 194.077 246.243C194.036 246.262 193.992 246.271 193.947 246.272ZM74.305 245.632H193.582C193.358 244.051 193.147 243.021 193.051 242.579H74.8298C74.7338 243.021 74.5226 244.051 74.305 245.632Z" fill="#263238"/>
<path d="M194.919 239.539H71.8026V243.763H194.919V239.539Z" fill="white"/>
<path d="M194.919 244.083H71.8027C71.7178 244.083 71.6364 244.049 71.5764 243.989C71.5164 243.929 71.4827 243.848 71.4827 243.763V239.539C71.4827 239.454 71.5164 239.373 71.5764 239.313C71.6364 239.253 71.7178 239.219 71.8027 239.219H194.919C195.004 239.219 195.086 239.253 195.146 239.313C195.206 239.373 195.239 239.454 195.239 239.539V243.763C195.239 243.848 195.206 243.929 195.146 243.989C195.086 244.049 195.004 244.083 194.919 244.083ZM72.1227 243.443H194.587V239.859H72.1227V243.443Z" fill="#263238"/>
<path d="M194.919 236.774H71.8026V240.998H194.919V236.774Z" fill="#263238"/>
<path d="M194.919 241.318H71.8027C71.7178 241.318 71.6364 241.285 71.5764 241.225C71.5164 241.165 71.4827 241.083 71.4827 240.998V236.8C71.4827 236.715 71.5164 236.634 71.5764 236.574C71.6364 236.514 71.7178 236.48 71.8027 236.48H194.919C195.004 236.48 195.086 236.514 195.146 236.574C195.206 236.634 195.239 236.715 195.239 236.8V241.024C195.233 241.104 195.196 241.179 195.137 241.234C195.078 241.288 195 241.319 194.919 241.318ZM72.1227 240.678H194.587V237.094H72.1227V240.678Z" fill="#263238"/>
<path d="M197.601 233.882H69.1146V239.584H197.601V233.882Z" fill="#263238"/>
<path d="M165.934 247.488H101.646V257.331H165.934V247.488Z" fill="white"/>
<path d="M165.934 257.651H101.646C101.561 257.651 101.48 257.617 101.42 257.557C101.36 257.497 101.326 257.416 101.326 257.331V247.488C101.326 247.403 101.36 247.322 101.42 247.262C101.48 247.202 101.561 247.168 101.646 247.168H165.934C166.018 247.17 166.099 247.204 166.158 247.264C166.218 247.323 166.252 247.404 166.254 247.488V257.331C166.254 257.416 166.22 257.497 166.16 257.557C166.1 257.617 166.019 257.651 165.934 257.651ZM101.934 257.011H165.582V247.808H101.966L101.934 257.011Z" fill="#263238"/>
<path d="M137.633 250.259H129.019V253.645H137.633V250.259Z" fill="#263238"/>
<path d="M137.627 253.965H129.019C128.934 253.963 128.854 253.929 128.794 253.869C128.734 253.81 128.7 253.729 128.699 253.645V250.24C128.699 250.155 128.732 250.074 128.792 250.014C128.852 249.954 128.934 249.92 129.019 249.92H137.627C137.711 249.92 137.793 249.954 137.853 250.014C137.913 250.074 137.947 250.155 137.947 250.24V253.626C137.949 253.669 137.943 253.713 137.928 253.754C137.913 253.795 137.89 253.833 137.86 253.864C137.83 253.896 137.794 253.921 137.754 253.939C137.714 253.956 137.67 253.965 137.627 253.965ZM129.307 253.325H137.281V250.579H129.339L129.307 253.325Z" fill="#263238"/>
<path d="M266.702 310.253C266.617 310.253 266.536 310.219 266.476 310.159C266.416 310.099 266.382 310.018 266.382 309.933V13.3824C266.382 13.2975 266.416 13.2161 266.476 13.1561C266.536 13.0961 266.617 13.0624 266.702 13.0624C266.787 13.0624 266.868 13.0961 266.928 13.1561C266.988 13.2161 267.022 13.2975 267.022 13.3824V309.933C267.02 310.017 266.986 310.098 266.926 310.157C266.867 310.217 266.786 310.251 266.702 310.253Z" fill="#263238"/>
<path d="M266.702 147.91C264.852 143.795 253.902 119.341 250.286 111.802C247.54 106.326 244.119 101.215 240.103 96.5888L211.899 108.749C211.899 108.749 211.259 110.029 211.047 114.349C210.843 118.515 262.593 203.021 266.727 209.709L266.702 147.91Z" fill="white"/>
<path d="M266.702 210.022C266.647 210.022 266.593 210.008 266.544 209.981C266.496 209.954 266.456 209.916 266.427 209.869C260.705 200.531 210.516 118.541 210.747 114.317C210.964 109.965 211.604 108.646 211.63 108.557C211.665 108.491 211.721 108.439 211.79 108.41L239.995 96.2496C240.057 96.2244 240.125 96.2189 240.19 96.2337C240.255 96.2486 240.314 96.2832 240.359 96.3328C240.423 96.4032 246.689 103.43 250.599 111.622C254.267 119.302 265.723 144.851 267.015 147.738C267.036 147.777 267.047 147.821 267.047 147.866V209.658C267.047 209.728 267.024 209.796 266.981 209.851C266.938 209.907 266.878 209.947 266.811 209.965L266.702 210.022ZM212.142 108.979C212.001 109.35 211.547 110.81 211.367 114.349C211.207 117.594 245.582 174.624 266.407 208.57V147.981C264.98 144.781 253.659 119.584 250.017 111.942C246.497 104.544 241.019 98.0992 240.039 96.9728L212.142 108.979Z" fill="#263238"/>
<path d="M266.702 166.074L244.302 130.112L243.79 120.781L233.275 117.555L231.918 128.416L242.772 134.016L264.66 190.336L266.702 178.554V166.074Z" fill="#263238"/>
<path d="M264.66 190.656C264.595 190.656 264.532 190.637 264.478 190.601C264.424 190.564 264.383 190.512 264.359 190.451L242.516 134.24L231.771 128.698C231.711 128.67 231.663 128.623 231.632 128.566C231.601 128.508 231.589 128.442 231.598 128.378L232.955 117.498C232.96 117.451 232.976 117.407 233 117.367C233.024 117.327 233.057 117.293 233.095 117.267C233.137 117.247 233.183 117.236 233.23 117.236C233.276 117.236 233.322 117.247 233.364 117.267L243.886 120.467C243.949 120.486 244.004 120.524 244.044 120.575C244.084 120.627 244.107 120.69 244.11 120.755L244.615 130.003L266.971 165.901C267.003 165.95 267.02 166.008 267.022 166.067V178.56L264.974 190.4C264.962 190.468 264.928 190.531 264.877 190.578C264.826 190.626 264.761 190.655 264.692 190.662L264.66 190.656ZM232.263 128.23L242.919 133.76C242.988 133.797 243.042 133.856 243.073 133.926L264.539 189.178L266.382 178.534V166.17L244.027 130.278C243.999 130.234 243.984 130.183 243.982 130.131L243.483 121.024L233.543 117.978L232.263 128.23Z" fill="#263238"/>
<path d="M211.899 108.736C211.899 108.736 210.708 111.936 211.047 114.336C211.387 116.736 217.326 126.547 219.873 130.278C222.42 134.01 232.423 135.04 232.423 135.04L235.815 121.126L249.729 126.214C249.729 126.214 249.895 113.83 249.729 109.926C249.563 106.022 244.302 99.7504 242.267 98.2208C240.231 96.6912 238.868 96.864 238.868 96.864L211.899 108.736Z" fill="white"/>
<path d="M232.423 135.354H232.391C231.975 135.315 222.203 134.278 219.591 130.47C217.179 126.925 211.079 116.902 210.721 114.387C210.363 111.872 211.534 108.768 211.585 108.627C211.599 108.587 211.621 108.549 211.649 108.518C211.678 108.486 211.713 108.46 211.751 108.442L238.747 96.5696C238.776 96.5639 238.807 96.5639 238.836 96.5696C238.9 96.5696 240.353 96.4032 242.465 97.984C244.577 99.5648 249.883 105.978 250.055 109.933C250.228 113.888 250.055 126.118 250.055 126.24C250.056 126.291 250.043 126.341 250.018 126.386C249.994 126.431 249.958 126.469 249.915 126.496C249.874 126.527 249.826 126.546 249.776 126.553C249.725 126.56 249.674 126.553 249.627 126.534L236.052 121.568L232.743 135.13C232.721 135.196 232.678 135.254 232.621 135.295C232.563 135.335 232.494 135.356 232.423 135.354ZM212.155 108.973C211.943 109.581 211.079 112.282 211.367 114.291C211.694 116.608 217.62 126.413 220.135 130.099C222.337 133.331 230.561 134.483 232.18 134.682L235.508 121.043C235.518 120.999 235.537 120.958 235.565 120.923C235.593 120.887 235.628 120.858 235.668 120.838C235.708 120.82 235.752 120.81 235.796 120.81C235.84 120.81 235.884 120.82 235.924 120.838L249.415 125.773C249.415 123.507 249.556 113.382 249.415 109.958C249.255 106.253 244.116 100.019 242.081 98.4896C240.359 97.2096 239.175 97.2096 238.958 97.2096L212.155 108.973Z" fill="#263238"/>
<path d="M266.702 84.8896C264.923 83.9744 262.222 82.6176 261.031 82.176C259.143 81.4912 257.255 83.2064 257.255 83.2064L240.103 96.5888C240.103 96.5888 248.334 113.229 254.51 123.866C258.907 131.43 264.078 142.381 266.702 148.07V84.8896Z" fill="#FF9F43"/>
<path d="M266.702 148.39C266.64 148.391 266.579 148.374 266.527 148.341C266.475 148.308 266.433 148.261 266.407 148.205C263.739 142.4 258.606 131.565 254.247 124.026C248.135 113.504 239.911 96.896 239.828 96.7296C239.794 96.6646 239.784 96.5894 239.801 96.5178C239.817 96.4462 239.859 96.3828 239.918 96.3392L257.07 82.9568C257.134 82.8928 259.105 81.1328 261.153 81.8752C262.35 82.3104 264.916 83.6032 266.862 84.6016C266.914 84.63 266.957 84.6716 266.987 84.7222C267.018 84.7728 267.034 84.8306 267.035 84.8896V148.07C267.035 148.144 267.009 148.216 266.963 148.273C266.916 148.33 266.851 148.369 266.779 148.384L266.702 148.39ZM240.507 96.6784C241.531 98.7392 249.083 113.882 254.791 123.706C258.855 130.707 263.579 140.589 266.382 146.618V85.0816C264.775 84.256 262.107 82.912 260.923 82.4768C259.246 81.8368 257.486 83.4304 257.473 83.4432L240.507 96.6784Z" fill="#263238"/>
<path d="M266.702 117.357L257.102 116.499L260.686 108.8C260.686 108.8 254.343 101.421 250.222 99.3664C247.214 97.856 243.822 95.8976 242.241 94.9504L240.103 96.6208C240.103 96.6208 248.334 113.261 254.51 123.898C258.907 131.462 264.078 142.413 266.702 148.102V117.357Z" fill="#FF9F43"/>
<path d="M266.702 148.39C266.64 148.391 266.579 148.374 266.527 148.341C266.475 148.308 266.433 148.261 266.407 148.205C263.739 142.4 258.606 131.565 254.247 124.026C248.135 113.504 239.911 96.896 239.828 96.7296C239.794 96.6646 239.784 96.5894 239.801 96.5178C239.817 96.4462 239.859 96.3828 239.918 96.3392L242.055 94.6688C242.109 94.6325 242.173 94.6131 242.238 94.6131C242.303 94.6131 242.366 94.6325 242.42 94.6688C244.123 95.68 247.419 97.5936 250.382 99.072C254.503 101.139 260.686 108.282 260.942 108.582C260.982 108.629 261.008 108.687 261.018 108.748C261.027 108.809 261.018 108.871 260.993 108.928L257.582 116.237L266.734 117.05C266.779 117.056 266.823 117.071 266.863 117.094C266.902 117.117 266.937 117.147 266.964 117.184C267.007 117.241 267.032 117.311 267.035 117.382V148.102C267.035 148.176 267.009 148.248 266.963 148.305C266.916 148.362 266.851 148.401 266.779 148.416L266.702 148.39ZM240.507 96.6784C241.531 98.7392 249.083 113.882 254.791 123.706C258.855 130.707 263.579 140.589 266.382 146.618V117.638L257.057 116.806C257.006 116.802 256.956 116.785 256.913 116.758C256.869 116.73 256.833 116.692 256.807 116.648C256.782 116.603 256.767 116.553 256.765 116.501C256.763 116.45 256.773 116.399 256.795 116.352L260.308 108.8C259.367 107.731 253.767 101.44 250.068 99.6032C247.195 98.1632 244.007 96.3264 242.254 95.2896L240.507 96.6784Z" fill="#263238"/>
<path d="M209.863 104.493C209.863 104.493 213.063 114.675 216.475 116.877C219.886 119.078 230.049 122.637 232.763 122.138C234.38 121.84 235.897 121.14 237.172 120.102C237.172 120.102 241.588 106.189 241.415 104.154C241.243 102.118 238.324 93.0496 238.324 93.0496C238.324 93.0496 232.084 106.189 229.883 107.379C227.681 108.57 209.863 104.493 209.863 104.493Z" fill="white"/>
<path d="M232.135 122.509C228.545 122.509 219.393 119.155 216.302 117.146C212.852 114.906 209.691 104.986 209.556 104.589C209.539 104.535 209.536 104.478 209.548 104.422C209.561 104.367 209.588 104.316 209.627 104.275C209.665 104.233 209.713 104.203 209.767 104.186C209.821 104.169 209.879 104.167 209.934 104.179C217.044 105.811 228.193 107.923 229.729 107.098C231.463 106.163 236.315 96.544 238.049 92.9152C238.077 92.8583 238.121 92.8109 238.175 92.779C238.23 92.7471 238.293 92.7321 238.356 92.736C238.42 92.7386 238.481 92.7609 238.532 92.7999C238.582 92.8389 238.619 92.8926 238.638 92.9536C238.759 93.3248 241.575 102.08 241.748 104.128C241.921 106.176 237.671 119.629 237.492 120.198C237.474 120.252 237.443 120.3 237.403 120.339C236.082 121.418 234.51 122.145 232.833 122.451C232.603 122.493 232.369 122.512 232.135 122.509ZM210.343 104.96C211.06 107.072 213.831 114.81 216.654 116.64C220.116 118.899 230.132 122.336 232.705 121.856C234.236 121.56 235.673 120.902 236.897 119.936C238.139 116.019 241.23 105.805 241.095 104.198C240.961 102.592 238.971 96.1664 238.267 93.9584C236.833 96.9152 232.033 106.618 230.03 107.699C228.027 108.781 213.729 105.69 210.343 104.96Z" fill="#263238"/>
<path d="M209.863 104.493C209.863 104.493 213.063 114.675 216.475 116.877C218.094 117.837 219.794 118.653 221.556 119.315L229.876 107.379C227.675 108.563 209.863 104.493 209.863 104.493Z" fill="#263238"/>
<path d="M221.556 119.635H221.441C219.663 118.968 217.95 118.141 216.321 117.165C212.871 114.925 209.71 105.005 209.575 104.608C209.558 104.554 209.555 104.497 209.567 104.441C209.58 104.386 209.607 104.335 209.646 104.294C209.684 104.253 209.733 104.222 209.787 104.205C209.84 104.188 209.898 104.186 209.953 104.198C217.063 105.83 228.206 107.942 229.748 107.117C229.811 107.082 229.885 107.07 229.956 107.082C230.027 107.095 230.092 107.132 230.139 107.187C230.184 107.242 230.209 107.311 230.209 107.382C230.209 107.454 230.184 107.523 230.139 107.578L221.819 119.52C221.786 119.558 221.746 119.587 221.7 119.607C221.655 119.627 221.606 119.637 221.556 119.635ZM210.343 104.915C211.06 107.027 213.831 114.765 216.654 116.595C218.177 117.51 219.779 118.285 221.441 118.912L229.121 107.859C225.377 108.23 213.409 105.6 210.343 104.96V104.915Z" fill="#263238"/>
<path d="M201.191 63.616C200.624 63.483 200.029 63.5444 199.501 63.7905C198.972 64.0365 198.542 64.4529 198.279 64.9728C197.564 66.3159 196.939 67.7057 196.411 69.1328L198.075 68.4032C198.075 68.4032 195.47 71.104 195.156 73.3952C194.843 75.6864 196.097 81.9264 196.929 83.0656C197.761 84.2048 208.891 105.536 210.03 106.054C211.169 106.573 224.071 112.922 225.844 112.71C227.617 112.499 232.705 111.674 233.851 109.696C234.996 107.718 238.843 97.9392 238.331 93.056C237.819 88.1728 231.572 63.2064 229.697 61.2352C227.822 59.264 225.639 59.1488 223.873 57.4848C222.824 56.5054 222.157 55.1854 221.991 53.76C221.463 54.2755 220.907 54.7626 220.327 55.2192C219.747 55.6542 219.283 56.2258 218.977 56.8832C218.977 56.8832 216.167 54.592 215.233 54.3872C214.299 54.1824 211.489 52.928 211.278 54.0736C211.067 55.2192 213.051 57.6 213.051 57.6C213.051 57.6 205.87 56.8704 202.958 57.8048C200.046 58.7392 198.382 60.6144 198.593 61.2416C198.804 61.8688 203.073 62.5216 203.073 62.5216L201.191 63.616Z" fill="white"/>
<path d="M225.767 113.037C224.097 113.037 217.025 109.754 210.99 106.867L209.902 106.342C209.172 106.016 206.062 100.416 200.129 89.5104C198.414 86.3488 196.929 83.616 196.667 83.2576C195.796 82.0544 194.516 75.7312 194.843 73.3504C195.041 71.8784 196.123 70.2784 196.916 69.2544L196.539 69.4208C196.481 69.4481 196.417 69.4572 196.354 69.4469C196.291 69.4366 196.232 69.4074 196.187 69.3632C196.142 69.3201 196.112 69.2651 196.098 69.205C196.084 69.1448 196.089 69.0819 196.11 69.024C196.642 67.5785 197.272 66.1715 197.998 64.8128C198.287 64.255 198.748 63.8047 199.313 63.5283C199.877 63.2518 200.516 63.1637 201.134 63.2768L202.151 62.6368C200.34 62.3296 198.478 61.888 198.311 61.3056C198.25 61.0456 198.293 60.7718 198.433 60.544C198.913 59.5968 200.507 58.2336 202.913 57.472C205.319 56.7104 210.478 57.024 212.398 57.184C211.796 56.3584 210.849 54.8864 211.015 53.984C211.036 53.865 211.082 53.7518 211.15 53.6523C211.219 53.5528 211.308 53.4695 211.412 53.408C212.052 53.0368 213.204 53.3632 214.548 53.7984C214.875 53.9072 215.156 53.9968 215.355 54.0416C216.174 54.2272 218.132 55.7312 218.919 56.352C219.257 55.8071 219.691 55.3279 220.199 54.9376C221.211 54.1248 221.831 53.5104 221.838 53.504C221.882 53.461 221.937 53.4314 221.997 53.4189C222.057 53.4065 222.12 53.4115 222.177 53.4336C222.235 53.4551 222.286 53.4933 222.322 53.5434C222.359 53.5935 222.379 53.6533 222.382 53.7152C222.544 55.0613 223.171 56.3086 224.155 57.2416C224.916 57.9094 225.781 58.4497 226.715 58.8416C227.93 59.3388 229.035 60.0719 229.966 60.9984C231.95 63.0912 238.19 88.3328 238.689 92.9984C239.227 98.1184 235.188 108.077 234.171 109.837C232.891 112.083 227.073 112.877 225.927 113.037H225.767ZM198.068 68.0832C198.12 68.0839 198.171 68.0964 198.218 68.1197C198.265 68.1429 198.305 68.1764 198.337 68.2176C198.377 68.28 198.396 68.3538 198.39 68.4278C198.384 68.5018 198.354 68.5718 198.305 68.6272C198.305 68.6272 195.745 71.2832 195.476 73.44C195.207 75.5968 196.404 81.8048 197.185 82.88C197.473 83.2768 198.823 85.7664 200.692 89.2096C203.937 95.2064 209.377 105.242 210.177 105.773L211.271 106.285C219.969 110.451 224.871 112.499 225.806 112.39C228.833 112.038 232.679 111.072 233.575 109.536C234.855 107.36 238.51 97.7984 238.004 93.088C237.473 88.096 231.227 63.3152 229.46 61.4464C228.576 60.5835 227.536 59.8971 226.395 59.424C225.394 59.0055 224.467 58.4285 223.649 57.7152C222.699 56.822 222.043 55.6615 221.767 54.3872C221.479 54.6496 221.057 55.0272 220.532 55.4432C219.986 55.8398 219.546 56.3653 219.252 56.9728C219.233 57.0194 219.204 57.061 219.166 57.0943C219.128 57.1276 219.083 57.1518 219.035 57.1648C218.986 57.1784 218.936 57.1802 218.887 57.1702C218.838 57.1602 218.792 57.1386 218.753 57.1072C217.646 56.2048 215.771 54.816 215.137 54.6752C214.926 54.624 214.619 54.528 214.273 54.4128C213.454 54.1504 212.091 53.7088 211.662 53.9648C211.637 53.9797 211.616 54.0001 211.6 54.0246C211.585 54.049 211.575 54.0768 211.572 54.1056C211.438 54.8352 212.545 56.4992 213.268 57.3824C213.309 57.4308 213.334 57.49 213.341 57.5526C213.347 57.6152 213.336 57.6785 213.307 57.7344C213.277 57.7906 213.232 57.8366 213.176 57.8663C213.12 57.896 213.056 57.908 212.993 57.9008C212.923 57.9008 205.844 57.1904 203.035 58.0992C200.129 59.0336 198.785 60.7936 198.868 61.1264C199.092 61.3952 201.236 61.888 203.086 62.1568C203.151 62.1671 203.212 62.1971 203.26 62.2429C203.308 62.2886 203.341 62.3479 203.355 62.4128C203.367 62.4767 203.359 62.5427 203.333 62.6022C203.307 62.6616 203.263 62.7117 203.207 62.7456L201.332 63.8912C201.257 63.935 201.168 63.9488 201.083 63.9296C200.583 63.8083 200.058 63.8608 199.592 64.0783C199.127 64.2959 198.75 64.6656 198.523 65.1264C197.928 66.2288 197.4 67.3657 196.942 68.5312L197.908 68.1088C197.958 68.0844 198.014 68.0755 198.068 68.0832Z" fill="#263238"/>
<path d="M235.617 82.6496C235.797 82.6462 235.975 82.6093 236.142 82.5408C234.004 73.632 230.913 62.5152 229.691 61.2288C227.815 59.2512 225.633 59.1424 223.867 57.4784C222.822 56.4997 222.157 55.1822 221.991 53.76C221.463 54.2755 220.908 54.7626 220.327 55.2192C219.747 55.6542 219.283 56.2258 218.977 56.8832C218.977 56.8832 216.167 54.592 215.233 54.3872C214.299 54.1824 211.489 52.928 211.278 54.0736C211.067 55.2192 213.051 57.6 213.051 57.6C213.051 57.6 205.87 56.8704 202.958 57.8048C200.046 58.7392 198.382 60.6144 198.593 61.2416C198.804 61.8688 203.073 62.5216 203.073 62.5216L201.198 63.6608C200.631 63.5278 200.035 63.5892 199.507 63.8353C198.979 64.0813 198.549 64.4977 198.286 65.0176C197.57 66.3607 196.946 67.7505 196.417 69.1776L198.081 68.448C198.081 68.448 195.476 71.1488 195.163 73.44C194.849 75.7312 196.103 81.9712 196.935 83.1104C197.307 83.6288 199.758 88.2304 202.452 93.1584L202.548 93.2032C202.742 93.1525 202.924 93.0631 203.082 92.9402C203.241 92.8174 203.373 92.6637 203.47 92.4885C203.568 92.3132 203.629 92.1201 203.65 91.9206C203.671 91.7212 203.651 91.5196 203.591 91.328C203.175 89.8752 202.241 87.7952 202.446 86.9632C202.651 86.1312 205.46 82.2784 204.423 80.4096C203.387 78.5408 199.943 76.2496 200.583 72.2944C201.223 68.3392 214.516 67.7184 215.764 67.0976C217.012 66.4768 221.07 63.456 222.631 62.6176C224.193 61.7792 227.521 63.2576 228.769 66.1504C230.017 69.0432 230.119 73.4336 230.535 74.784C230.951 76.1344 233.447 77.8048 233.447 77.8048C233.447 77.8048 234.58 82.6496 235.617 82.6496Z" fill="#263238"/>
<path d="M202.542 93.4784C202.495 93.4769 202.45 93.466 202.407 93.4464L202.311 93.4016C202.248 93.3724 202.196 93.3228 202.164 93.2608C201.46 91.9808 200.775 90.7008 200.135 89.5296C198.42 86.3296 196.935 83.616 196.667 83.2576C195.796 82.0544 194.516 75.7312 194.843 73.3504C195.041 71.8784 196.123 70.2784 196.916 69.2544L196.539 69.4208C196.481 69.4481 196.417 69.4572 196.354 69.4469C196.291 69.4366 196.232 69.4074 196.187 69.3632C196.142 69.3201 196.112 69.2651 196.098 69.205C196.084 69.1448 196.089 69.0819 196.11 69.024C196.642 67.5785 197.272 66.1715 197.998 64.8128C198.287 64.255 198.748 63.8047 199.313 63.5283C199.877 63.2518 200.516 63.1637 201.134 63.2768L202.151 62.6368C200.34 62.3296 198.478 61.888 198.311 61.3056C198.25 61.0456 198.293 60.7718 198.433 60.544C198.913 59.5968 200.507 58.2336 202.913 57.472C205.319 56.7104 210.478 57.024 212.398 57.184C211.796 56.3584 210.849 54.8864 211.015 53.984C211.036 53.865 211.082 53.7518 211.15 53.6523C211.219 53.5528 211.308 53.4695 211.412 53.408C212.052 53.0368 213.204 53.3632 214.548 53.7984C214.875 53.9072 215.156 53.9968 215.355 54.0416C216.174 54.2272 218.132 55.7312 218.919 56.352C219.257 55.8071 219.691 55.3279 220.199 54.9376C221.211 54.1248 221.831 53.5104 221.838 53.504C221.882 53.461 221.937 53.4314 221.997 53.4189C222.057 53.4065 222.12 53.4115 222.177 53.4336C222.235 53.4551 222.286 53.4933 222.322 53.5434C222.359 53.5935 222.379 53.6533 222.382 53.7152C222.544 55.0613 223.171 56.3086 224.155 57.2416C224.916 57.9094 225.781 58.4497 226.715 58.8416C227.93 59.3388 229.035 60.0719 229.966 60.9984C231.431 62.5408 234.881 75.7184 236.5 82.4576C236.519 82.5339 236.51 82.6146 236.473 82.6843C236.437 82.7539 236.376 82.8077 236.302 82.8352C236.098 82.9171 235.881 82.9605 235.662 82.9632C234.529 82.9632 233.582 79.552 233.198 77.952C232.699 77.6064 230.638 76.128 230.26 74.8352C230.079 74.0617 229.948 73.2771 229.87 72.4864C229.633 70.6368 229.307 68.1024 228.507 66.2336C228.169 65.4678 227.682 64.7776 227.073 64.2037C226.464 63.6299 225.745 63.1841 224.961 62.8928C224.623 62.7438 224.259 62.6636 223.89 62.657C223.52 62.6504 223.154 62.7175 222.811 62.8544C222.043 63.264 220.635 64.2304 219.271 65.1648C217.908 66.0992 216.583 67.008 215.943 67.328C214.977 67.6142 213.984 67.8008 212.98 67.8848C208.916 68.48 201.358 69.5744 200.929 72.2944C200.5 75.0144 202.139 76.96 203.489 78.5088C203.966 79.0343 204.394 79.602 204.769 80.2048C205.627 81.7472 204.257 84.256 203.355 85.9136C203.149 86.257 202.971 86.6166 202.823 86.9888C202.695 87.4752 203.118 88.6848 203.463 89.7472C203.636 90.24 203.809 90.7456 203.937 91.1936C204.05 91.5055 204.067 91.8439 203.986 92.1655C203.905 92.4871 203.73 92.7771 203.483 92.9984C203.25 93.2078 202.975 93.3649 202.676 93.4592L202.542 93.4784ZM198.062 68.0832C198.114 68.0839 198.165 68.0964 198.212 68.1197C198.258 68.1429 198.299 68.1764 198.331 68.2176C198.371 68.28 198.389 68.3538 198.384 68.4278C198.378 68.5018 198.348 68.5718 198.299 68.6272C198.299 68.6272 195.739 71.2832 195.47 73.44C195.201 75.5968 196.398 81.8048 197.179 82.88C197.467 83.2768 198.823 85.7728 200.692 89.2224C201.3 90.3488 201.972 91.552 202.612 92.7808C202.883 92.6774 203.101 92.4717 203.221 92.2081C203.341 91.9446 203.352 91.6445 203.252 91.3728C203.131 90.944 202.958 90.4576 202.785 89.9648C202.35 88.6848 201.934 87.5136 202.107 86.8416C202.259 86.4122 202.456 86.0003 202.695 85.6128C203.483 84.1728 204.801 81.7728 204.11 80.4928C203.757 79.9271 203.352 79.3958 202.9 78.9056C201.499 77.2544 199.751 75.2 200.225 72.1728C200.731 68.9728 208.295 67.8912 212.82 67.2384C213.752 67.1374 214.676 66.9706 215.585 66.7392C216.187 66.4384 217.505 65.5168 218.836 64.6208C220.167 63.7248 221.639 62.7008 222.439 62.272C222.86 62.0899 223.313 61.9959 223.771 61.9959C224.229 61.9959 224.682 62.0899 225.102 62.272C225.97 62.5935 226.764 63.0861 227.438 63.7204C228.112 64.3548 228.652 65.118 229.025 65.9648C229.857 67.8848 230.19 70.496 230.433 72.3648C230.51 73.1184 230.634 73.8665 230.804 74.6048C231.118 75.6224 232.916 76.9984 233.588 77.4464C233.654 77.4928 233.702 77.5607 233.723 77.6384C234.292 80.0704 235.182 82.2784 235.591 82.2784C235.64 82.2845 235.69 82.2845 235.739 82.2784C233.492 72.9792 230.542 62.5792 229.435 61.408C228.551 60.5451 227.51 59.8587 226.369 59.3856C225.368 58.9671 224.441 58.3901 223.623 57.6768C222.674 56.7836 222.018 55.6231 221.742 54.3488C221.454 54.6112 221.031 54.9888 220.507 55.4048C219.96 55.8014 219.521 56.3269 219.227 56.9344C219.208 56.981 219.178 57.0226 219.14 57.0559C219.103 57.0892 219.058 57.1134 219.009 57.1264C218.961 57.14 218.91 57.1418 218.861 57.1318C218.812 57.1218 218.766 57.1002 218.727 57.0688C217.62 56.1664 215.745 54.7776 215.111 54.6368C214.9 54.5856 214.593 54.4896 214.247 54.3744C213.428 54.112 212.065 53.6704 211.636 53.9264C211.611 53.9413 211.59 53.9617 211.575 53.9862C211.559 54.0106 211.55 54.0384 211.547 54.0672C211.412 54.7968 212.519 56.4608 213.243 57.344C213.283 57.3924 213.308 57.4516 213.315 57.5142C213.322 57.5768 213.31 57.6401 213.281 57.696C213.252 57.7522 213.206 57.7982 213.15 57.8279C213.094 57.8576 213.03 57.8696 212.967 57.8624C212.897 57.8624 205.819 57.1584 203.009 58.0608C200.103 58.9952 198.759 60.7552 198.843 61.088C199.067 61.3568 201.211 61.8496 203.06 62.1184C203.126 62.1287 203.187 62.1587 203.235 62.2045C203.283 62.2502 203.316 62.3095 203.329 62.3744C203.341 62.4383 203.334 62.5043 203.307 62.5638C203.281 62.6232 203.237 62.6733 203.182 62.7072L201.307 63.8528C201.231 63.8966 201.142 63.9104 201.057 63.8912C200.558 63.7711 200.033 63.8241 199.568 64.0416C199.102 64.259 198.725 64.628 198.497 65.088C197.903 66.1904 197.375 67.3273 196.916 68.4928L197.883 68.0704C197.944 68.053 198.01 68.0575 198.068 68.0832H198.062Z" fill="#263238"/>
<path d="M201.089 90.6624C201.089 90.6624 198.177 90.2464 198.279 93.5744C198.382 96.9024 206.286 100.019 206.286 100.019L201.089 90.6624Z" fill="#263238"/>
<path d="M206.286 100.339C206.248 100.345 206.209 100.345 206.171 100.339C205.838 100.205 198.068 97.1008 197.959 93.6C197.912 93.1337 197.968 92.6628 198.123 92.2204C198.278 91.778 198.528 91.3751 198.855 91.04C199.174 90.7877 199.539 90.6012 199.93 90.4913C200.322 90.3814 200.731 90.3504 201.134 90.4C201.183 90.4078 201.229 90.4262 201.27 90.4539C201.311 90.4815 201.345 90.5177 201.371 90.56L206.567 99.84C206.599 99.8974 206.613 99.9632 206.606 100.028C206.599 100.094 206.572 100.155 206.529 100.205C206.501 100.243 206.464 100.275 206.422 100.299C206.38 100.322 206.334 100.336 206.286 100.339ZM200.788 90.9632C200.24 90.9486 199.704 91.1302 199.278 91.4752C199.017 91.751 198.821 92.0812 198.704 92.4421C198.586 92.8029 198.551 93.1853 198.599 93.5616C198.676 96.0192 203.547 98.4576 205.556 99.36L200.891 90.9696L200.788 90.9632Z" fill="#263238"/>
<path d="M234.996 77.0368C234.996 77.0368 238.113 74.7456 239.156 78.2848C240.199 81.824 237.492 88.6848 237.492 88.6848L234.996 77.0368Z" fill="white"/>
<path d="M237.467 89.0048C237.398 88.9982 237.333 88.9699 237.281 88.9238C237.229 88.8778 237.193 88.8165 237.179 88.7488L234.683 77.1008C234.67 77.0405 234.675 76.9778 234.696 76.92C234.718 76.8623 234.755 76.8118 234.804 76.7744C234.868 76.7296 236.385 75.6352 237.774 76.1344C238.206 76.3166 238.587 76.6031 238.882 76.9682C239.177 77.3334 239.376 77.766 239.463 78.2272C240.519 81.824 237.902 88.5504 237.787 88.832C237.757 88.8899 237.711 88.9374 237.654 88.9683C237.596 88.9992 237.531 89.0119 237.467 89.0048ZM235.355 77.184L237.569 87.52C238.267 85.4848 239.611 80.96 238.849 78.3744C238.786 78.0142 238.637 77.6745 238.414 77.3847C238.191 77.0949 237.901 76.8635 237.569 76.7104C237.187 76.6353 236.794 76.6385 236.413 76.7199C236.033 76.8013 235.672 76.9592 235.355 77.184Z" fill="#263238"/>
<path d="M223.073 97.28C222.488 97.2903 221.92 97.0879 221.473 96.7104C221.41 96.6538 221.371 96.5746 221.365 96.4897C221.359 96.4048 221.386 96.321 221.441 96.256C221.468 96.224 221.501 96.1978 221.539 96.1788C221.576 96.1598 221.617 96.1485 221.658 96.1455C221.7 96.1426 221.742 96.148 221.782 96.1614C221.821 96.1749 221.858 96.1962 221.889 96.224C222.158 96.4308 222.475 96.5672 222.81 96.6209C223.145 96.6745 223.489 96.6437 223.809 96.5312C224.229 96.422 224.619 96.2205 224.951 95.9415C225.283 95.6625 225.549 95.313 225.729 94.9184C226.004 94.0352 224.558 91.36 223.585 89.8816C223.538 89.8103 223.522 89.7234 223.539 89.64C223.557 89.5566 223.607 89.4835 223.678 89.4368C223.749 89.3901 223.836 89.3737 223.919 89.3911C224.003 89.4085 224.076 89.4583 224.123 89.5296C224.398 89.9456 226.791 93.6512 226.343 95.104C226.134 95.6043 225.81 96.049 225.4 96.4033C224.989 96.7575 224.501 97.0116 223.975 97.1456C223.682 97.2315 223.379 97.2768 223.073 97.28Z" fill="#263238"/>
<path d="M221.364 102.4C219.713 102.38 218.072 102.135 216.487 101.67C216.448 101.658 216.411 101.638 216.379 101.611C216.347 101.585 216.321 101.552 216.302 101.515C216.283 101.478 216.271 101.438 216.268 101.396C216.265 101.355 216.27 101.313 216.283 101.274C216.294 101.233 216.314 101.196 216.34 101.163C216.367 101.131 216.399 101.104 216.436 101.084C216.473 101.065 216.514 101.052 216.556 101.049C216.597 101.045 216.639 101.05 216.679 101.062C216.731 101.062 221.902 102.662 225.179 100.979C228.455 99.296 230.459 97.9264 231.047 95.8592C231.07 95.7743 231.126 95.702 231.202 95.6582C231.278 95.6144 231.369 95.6027 231.454 95.6256C231.539 95.6485 231.611 95.7042 231.655 95.7804C231.699 95.8566 231.71 95.9471 231.687 96.032C231.047 98.3104 229.012 99.7248 225.492 101.536C224.203 102.144 222.789 102.44 221.364 102.4Z" fill="#263238"/>
<path d="M207.534 87.4496C207.431 87.45 207.33 87.4259 207.239 87.3792C207.089 87.3002 206.977 87.1649 206.926 87.0029C206.876 86.8408 206.892 86.6654 206.971 86.5152C207.054 86.3616 209.031 82.7136 214.235 81.3056C214.396 81.268 214.566 81.2945 214.708 81.3798C214.851 81.465 214.955 81.6022 214.998 81.7624C215.041 81.9226 215.02 82.0934 214.94 82.2386C214.86 82.3838 214.726 82.4922 214.567 82.5408C209.895 83.8208 208.123 87.0784 208.103 87.1104C208.048 87.2136 207.966 87.2997 207.866 87.3595C207.766 87.4193 207.651 87.4505 207.534 87.4496Z" fill="#263238"/>
<path d="M220.641 79.6544C220.543 79.6534 220.446 79.6298 220.358 79.5854C220.271 79.541 220.194 79.477 220.135 79.3984C220.032 79.2642 219.986 79.0945 220.008 78.9266C220.03 78.7587 220.117 78.6061 220.251 78.5024C220.449 78.3552 225.07 74.8608 229.006 76.5824C229.083 76.6156 229.153 76.6637 229.212 76.724C229.271 76.7842 229.317 76.8555 229.348 76.9336C229.379 77.0118 229.395 77.0953 229.394 77.1794C229.393 77.2636 229.375 77.3467 229.342 77.424C229.309 77.5013 229.26 77.5714 229.2 77.6301C229.14 77.6888 229.069 77.7351 228.991 77.7663C228.912 77.7975 228.829 77.813 228.745 77.8119C228.661 77.8108 228.578 77.7932 228.5 77.76C225.255 76.3648 221.07 79.52 221.031 79.552C220.916 79.6273 220.779 79.6633 220.641 79.6544Z" fill="#263238"/>
<path d="M214.023 88.6912C214.497 89.4784 214.42 90.3936 213.857 90.7328C213.294 91.072 212.449 90.7328 211.975 89.9264C211.502 89.12 211.572 88.224 212.135 87.8848C212.699 87.5456 213.55 87.904 214.023 88.6912Z" fill="#263238"/>
<path d="M227.771 83.4176C228.142 84.256 227.95 85.1584 227.348 85.4208C226.747 85.6832 225.953 85.2224 225.582 84.384C225.211 83.5456 225.396 82.6432 226.004 82.3744C226.612 82.1056 227.399 82.56 227.771 83.4176Z" fill="#263238"/>
<path d="M266.702 206.029L250.868 250.963L266.702 291.693V206.029Z" fill="#263238"/>
<path d="M266.702 292.013C266.637 292.012 266.574 291.993 266.52 291.956C266.467 291.92 266.425 291.868 266.401 291.808L250.574 251.078C250.548 251.006 250.548 250.927 250.574 250.854L266.401 205.92C266.408 205.878 266.424 205.838 266.446 205.802C266.469 205.766 266.498 205.734 266.533 205.71C266.568 205.685 266.607 205.667 266.649 205.658C266.69 205.648 266.733 205.647 266.775 205.654C266.817 205.662 266.858 205.677 266.894 205.7C266.93 205.722 266.961 205.752 266.986 205.787C267.01 205.821 267.028 205.861 267.038 205.902C267.047 205.944 267.048 205.987 267.041 206.029V291.693C267.041 291.767 267.014 291.84 266.966 291.897C266.919 291.954 266.852 291.993 266.779 292.006L266.702 292.013ZM251.214 250.957L266.382 289.997V207.898L251.214 250.957Z" fill="#263238"/>
<path d="M211.899 108.736C211.899 108.736 195.259 126.208 193.403 127.904C191.547 129.6 186.279 133.024 187.124 136.051C187.969 139.078 235.988 202.24 235.988 202.24L239.188 218.694V265.664C239.188 265.664 255.828 254.976 262.433 240.384C262.433 240.384 265.147 230.714 265.825 222.739V205.267L221.025 130.957C221.025 130.957 211.227 115.84 211.899 108.736Z" fill="#FF9F43"/>
<path d="M239.207 265.984C239.156 265.984 239.105 265.971 239.06 265.946C239.009 265.919 238.965 265.878 238.935 265.829C238.904 265.779 238.888 265.722 238.887 265.664V218.669L235.687 202.349C233.127 199.027 187.687 139.194 186.817 136.134C186.068 133.44 189.569 130.624 191.879 128.755C192.404 128.339 192.852 127.974 193.191 127.667C195.028 125.997 211.495 108.691 211.662 108.512C211.709 108.466 211.769 108.435 211.834 108.422C211.899 108.41 211.966 108.417 212.027 108.442C212.088 108.47 212.139 108.516 212.172 108.575C212.206 108.633 212.22 108.701 212.212 108.768C211.572 115.699 221.23 130.637 221.326 130.784L266.126 205.101C266.156 205.151 266.172 205.209 266.171 205.267V222.72C265.531 230.662 262.798 240.358 262.766 240.454C256.174 255.008 239.559 265.805 239.393 265.914C239.339 265.954 239.275 265.978 239.207 265.984ZM211.54 109.568C208.532 112.73 195.297 126.618 193.62 128.128C193.268 128.448 192.814 128.819 192.283 129.242C190.1 131.002 186.798 133.664 187.438 135.949C188.078 138.234 219.649 180.198 236.244 202.01C236.27 202.049 236.289 202.092 236.302 202.138L239.502 218.598V265.05C242.305 263.13 256.27 253.171 262.139 240.243C262.139 240.192 264.833 230.554 265.499 222.701V205.357L220.756 131.117C220.398 130.56 211.617 116.973 211.54 109.568Z" fill="#263238"/>
<path d="M221.057 130.957C221.057 130.957 211.227 115.84 211.899 108.736C211.899 108.736 209.87 110.867 207.15 113.709C207.047 115.181 206.977 117.274 206.977 120.269C207.033 127.33 208.295 134.33 210.708 140.966L221.588 140.627L214.427 151.149C214.427 151.149 228.679 170.349 237.671 178.63C244.571 185.03 258.247 197.274 264.251 202.637L221.057 130.957Z" fill="#FF9F43"/>
<path d="M264.263 202.957C264.183 202.957 264.105 202.928 264.046 202.874C258.375 197.805 244.436 185.312 237.467 178.867C228.558 170.63 214.324 151.533 214.183 151.347C214.145 151.293 214.124 151.228 214.124 151.162C214.124 151.095 214.145 151.03 214.183 150.976L220.955 140.973L210.715 141.293C210.65 141.293 210.586 141.275 210.531 141.24C210.477 141.204 210.434 141.154 210.407 141.094C207.988 134.417 206.718 127.377 206.651 120.275C206.651 117.555 206.708 115.341 206.823 113.696C206.829 113.621 206.861 113.551 206.913 113.498C209.633 110.65 211.655 108.518 211.655 108.518C211.702 108.471 211.762 108.439 211.827 108.426C211.892 108.414 211.959 108.421 212.02 108.448C212.082 108.476 212.133 108.522 212.166 108.581C212.199 108.64 212.213 108.707 212.206 108.774C211.566 115.706 221.223 130.643 221.319 130.79L264.526 202.47C264.564 202.537 264.578 202.615 264.565 202.691C264.552 202.767 264.513 202.836 264.455 202.886C264.4 202.928 264.333 202.952 264.263 202.957ZM214.836 151.117C216.315 153.094 229.499 170.605 237.876 178.374C244.276 184.269 256.494 195.258 262.836 200.954L220.788 131.13C220.353 130.49 211.617 116.954 211.54 109.568L207.463 113.85C207.355 115.469 207.297 117.626 207.297 120.25C207.368 127.194 208.595 134.079 210.926 140.621L221.556 140.288C221.615 140.286 221.673 140.301 221.725 140.33C221.776 140.359 221.818 140.402 221.847 140.453C221.875 140.505 221.889 140.564 221.886 140.622C221.883 140.681 221.864 140.738 221.831 140.787L214.836 151.117Z" fill="#263238"/>
<path d="M248.033 197.805L251.399 197.126C250.684 200.558 250.634 204.095 251.252 207.546C251.777 210.703 252.613 213.801 253.748 216.794L251.105 217.376C251.105 217.376 246.427 207.283 248.033 197.805Z" fill="white"/>
<path d="M251.105 217.696C251.044 217.695 250.984 217.678 250.932 217.645C250.88 217.612 250.838 217.565 250.811 217.51C250.766 217.408 246.113 207.219 247.719 197.747C247.73 197.684 247.76 197.626 247.804 197.58C247.849 197.534 247.906 197.503 247.969 197.491L251.335 196.813C251.389 196.803 251.443 196.806 251.495 196.823C251.546 196.84 251.593 196.869 251.63 196.909C251.667 196.947 251.693 196.995 251.706 197.046C251.72 197.098 251.72 197.152 251.707 197.203C251.003 200.59 250.948 204.081 251.547 207.488C252.07 210.621 252.9 213.695 254.023 216.666C254.042 216.709 254.052 216.756 254.052 216.803C254.052 216.851 254.042 216.897 254.023 216.941C254.001 216.982 253.97 217.018 253.933 217.045C253.895 217.073 253.852 217.092 253.806 217.101L251.169 217.69L251.105 217.696ZM248.347 198.074C247.009 206.496 250.651 215.456 251.323 217.011L253.345 216.557C252.285 213.648 251.491 210.649 250.971 207.597C250.377 204.266 250.392 200.855 251.015 197.53L248.347 198.074Z" fill="#263238"/>
<path d="M186.619 134.861C186.619 134.861 184.923 138.931 186.107 142.33C187.291 145.728 192.897 169.133 192.897 169.133C192.897 169.133 188.654 170.995 191.879 175.238C193.78 177.725 195.427 180.397 196.795 183.213C196.795 183.213 194.932 185.421 196.967 188.813C197.992 190.453 198.899 192.164 199.681 193.933C199.681 193.933 203.073 211.744 204.801 213.44C206.529 215.136 215.15 218.195 227.201 219.04C239.252 219.885 251.975 220.23 251.975 220.23C251.975 220.23 249.255 214.118 248.775 208.352C248.295 202.586 248.097 197.837 248.097 197.837L226.382 195.802L222.478 184.602L187.975 137.6C187.975 137.6 186.446 135.712 186.619 134.861Z" fill="#FF9F43"/>
<path d="M251.937 220.518C251.809 220.518 239.073 220.166 227.156 219.328C215.239 218.49 206.407 215.488 204.558 213.638C202.843 211.923 199.732 195.795 199.38 193.958C198.594 192.242 197.7 190.577 196.705 188.973C194.875 185.926 196.027 183.782 196.436 183.174C195.087 180.446 193.48 177.853 191.636 175.43C190.542 173.997 190.151 172.653 190.465 171.437C190.802 170.37 191.547 169.479 192.539 168.96C191.937 166.451 186.926 145.587 185.819 142.432C184.603 138.963 186.267 134.912 186.337 134.752C186.367 134.679 186.423 134.62 186.494 134.586C186.564 134.552 186.645 134.545 186.721 134.566C186.797 134.59 186.862 134.641 186.904 134.709C186.945 134.778 186.96 134.859 186.945 134.938C186.849 135.418 187.643 136.659 188.225 137.389L222.67 184.39C222.691 184.417 222.706 184.447 222.715 184.48L226.555 195.482L248.071 197.498C248.148 197.505 248.22 197.541 248.273 197.597C248.326 197.654 248.357 197.727 248.359 197.805C248.359 197.85 248.532 202.611 249.038 208.307C249.543 214.003 252.206 220.019 252.238 220.077C252.264 220.125 252.278 220.179 252.278 220.234C252.278 220.288 252.264 220.342 252.238 220.39C252.203 220.436 252.157 220.471 252.104 220.494C252.052 220.516 251.994 220.525 251.937 220.518ZM186.567 136.038C186.158 137.434 185.627 140.019 186.414 142.253C187.591 145.619 192.98 168.134 193.204 169.088C193.223 169.161 193.215 169.238 193.182 169.306C193.15 169.374 193.094 169.428 193.025 169.459C192.569 169.671 192.161 169.973 191.825 170.347C191.49 170.721 191.234 171.159 191.073 171.635C190.811 172.653 191.169 173.805 192.129 175.078C194.046 177.583 195.708 180.274 197.089 183.11C197.114 183.166 197.123 183.226 197.115 183.286C197.107 183.346 197.082 183.403 197.044 183.45C196.974 183.533 195.355 185.536 197.243 188.678C198.274 190.318 199.187 192.029 199.975 193.798C200.935 198.79 203.662 211.872 204.999 213.203C206.734 214.938 215.63 217.894 227.188 218.707C237.755 219.456 248.948 219.808 251.444 219.885C250.804 218.336 248.82 213.21 248.391 208.365C247.963 203.52 247.751 199.213 247.751 198.125L226.311 196.115C226.25 196.111 226.192 196.089 226.144 196.052C226.096 196.014 226.061 195.962 226.043 195.904L222.107 184.723L187.7 137.766C187.259 137.223 186.879 136.633 186.567 136.006V136.038Z" fill="#263238"/>
<path d="M207.483 175.392C207.398 175.39 207.318 175.356 207.258 175.296C207.198 175.237 207.164 175.156 207.163 175.072C207.163 174.987 207.196 174.906 207.256 174.846C207.316 174.786 207.398 174.752 207.483 174.752C209.121 174.696 210.748 174.458 212.334 174.042C208.247 173.624 204.14 173.44 200.033 173.491C199.948 173.491 199.867 173.457 199.807 173.397C199.747 173.337 199.713 173.256 199.713 173.171C199.713 173.086 199.747 173.005 199.807 172.945C199.867 172.885 199.948 172.851 200.033 172.851C202.593 172.851 205.921 172.922 208.526 173.069C213.499 173.35 213.543 173.67 213.588 173.978C213.633 174.285 213.179 174.483 213.006 174.528C211.207 175.043 209.352 175.333 207.483 175.392Z" fill="#263238"/>
<path d="M196.628 176.915C196.579 176.915 196.53 176.903 196.485 176.881C196.441 176.859 196.402 176.827 196.372 176.787C196.231 176.602 195.003 174.918 195.361 173.83C195.424 173.643 195.535 173.474 195.681 173.341C195.828 173.208 196.006 173.114 196.199 173.069C196.954 172.907 197.726 172.842 198.497 172.877C198.538 172.876 198.579 172.883 198.618 172.898C198.656 172.913 198.691 172.936 198.721 172.964C198.75 172.993 198.774 173.027 198.791 173.064C198.807 173.102 198.816 173.143 198.817 173.184C198.819 173.226 198.812 173.268 198.798 173.307C198.783 173.347 198.761 173.383 198.732 173.414C198.704 173.445 198.67 173.47 198.631 173.488C198.593 173.505 198.552 173.515 198.51 173.517C197.794 173.504 197.078 173.558 196.372 173.677C196.279 173.693 196.191 173.735 196.119 173.797C196.047 173.859 195.993 173.939 195.963 174.029C195.771 174.611 196.423 175.795 196.878 176.403C196.927 176.472 196.948 176.557 196.936 176.64C196.924 176.724 196.88 176.799 196.814 176.851C196.76 176.892 196.695 176.914 196.628 176.915Z" fill="#263238"/>
<path d="M206.638 200.16C206.592 200.16 206.547 200.15 206.505 200.131C206.463 200.112 206.425 200.085 206.395 200.051C206.34 199.986 206.312 199.902 206.318 199.818C206.324 199.733 206.363 199.653 206.427 199.597C206.427 199.597 207.284 198.854 208.507 197.946C208.575 197.896 208.661 197.875 208.745 197.888C208.829 197.901 208.905 197.947 208.955 198.016C209.005 198.085 209.025 198.171 209.012 198.255C208.999 198.339 208.953 198.414 208.884 198.464C207.681 199.354 206.855 200.07 206.849 200.077C206.792 200.13 206.716 200.16 206.638 200.16Z" fill="#263238"/>
<path d="M210.587 197.229C210.533 197.227 210.481 197.213 210.435 197.187C210.388 197.162 210.348 197.126 210.318 197.082C210.272 197.01 210.257 196.924 210.275 196.841C210.293 196.758 210.343 196.686 210.414 196.64C210.99 196.269 211.553 195.942 212.091 195.654C215.035 194.099 224.436 195.232 224.833 195.277C224.917 195.288 224.994 195.332 225.047 195.399C225.099 195.466 225.124 195.551 225.115 195.635C225.11 195.677 225.097 195.718 225.076 195.755C225.055 195.792 225.028 195.825 224.994 195.851C224.961 195.877 224.923 195.896 224.882 195.908C224.841 195.919 224.798 195.922 224.756 195.917C224.66 195.917 215.156 194.758 212.391 196.218C211.867 196.499 211.316 196.819 210.759 197.178C210.708 197.211 210.648 197.229 210.587 197.229Z" fill="#263238"/>
<path d="M251.399 197.12L255.035 192.941C255.035 192.941 257.223 186.81 257.659 186.221C258.094 185.632 261.601 180.531 262.183 179.36C262.766 178.189 262.913 173.811 264.667 174.4C266.42 174.989 265.838 176.736 265.543 180.09C265.235 182.471 264.546 184.788 263.502 186.95C263.502 186.95 264.814 198.925 264.814 199.654C264.814 200.384 261.614 212.064 261.614 212.064L252.999 215.565C252.999 215.565 249.076 208.173 251.399 197.12Z" fill="white"/>
<path d="M252.987 215.891C252.929 215.891 252.873 215.875 252.823 215.846C252.774 215.817 252.733 215.775 252.705 215.725C252.667 215.648 248.769 208.096 251.086 197.062C251.097 197.008 251.121 196.958 251.156 196.915L254.753 192.781C255.054 191.93 256.961 186.63 257.403 186.035C257.844 185.44 261.339 180.352 261.883 179.226C262.076 178.707 262.22 178.171 262.311 177.626C262.612 176.237 262.951 174.662 263.79 174.176C263.934 174.094 264.095 174.044 264.261 174.031C264.427 174.018 264.594 174.041 264.75 174.099C266.439 174.662 266.267 176.192 266.03 178.509C265.972 178.995 265.915 179.539 265.863 180.128C265.561 182.518 264.873 184.844 263.828 187.014C263.963 188.211 265.108 198.944 265.108 199.661C265.108 200.378 262.215 210.957 261.908 212.154C261.895 212.201 261.872 212.244 261.84 212.281C261.808 212.317 261.768 212.346 261.723 212.365L253.108 215.866C253.07 215.884 253.029 215.893 252.987 215.891ZM251.707 197.274C249.71 206.874 252.519 213.766 253.159 215.162L261.351 211.834C262.631 207.174 264.494 200.205 264.507 199.674C264.519 199.142 263.649 191.142 263.195 187.008C263.189 186.946 263.2 186.885 263.227 186.829C264.254 184.703 264.932 182.425 265.236 180.083C265.287 179.488 265.351 178.944 265.403 178.451C265.684 175.974 265.723 175.098 264.577 174.72C264.509 174.688 264.435 174.671 264.359 174.671C264.284 174.671 264.21 174.688 264.142 174.72C263.547 175.059 263.214 176.64 262.971 177.747C262.87 178.347 262.707 178.935 262.484 179.501C261.895 180.685 258.401 185.773 257.927 186.406C257.633 186.803 256.187 190.688 255.367 193.037C255.356 193.076 255.334 193.112 255.303 193.139L251.707 197.274Z" fill="#263238"/>
<path d="M257.076 192.07L260.436 187.104L265.396 181.267C265.396 181.267 267.15 176.013 267.879 176.448C268.609 176.883 269.339 178.49 268.462 180.973C267.65 182.997 266.674 184.951 265.543 186.816L261.748 195.571L260.583 197.76" fill="white"/>
<path d="M260.583 198.08C260.53 198.08 260.477 198.066 260.43 198.042C260.356 198.002 260.3 197.935 260.275 197.855C260.25 197.775 260.257 197.688 260.295 197.613L261.467 195.424L265.249 186.688C266.377 184.832 267.351 182.886 268.161 180.87C268.955 178.611 268.366 177.184 267.777 176.762C267.348 177.069 266.375 179.322 265.703 181.37C265.691 181.408 265.669 181.444 265.639 181.472L260.679 187.315L257.339 192.25C257.287 192.309 257.216 192.347 257.138 192.357C257.06 192.366 256.982 192.348 256.917 192.303C256.852 192.259 256.806 192.193 256.787 192.117C256.768 192.041 256.778 191.961 256.814 191.891L260.167 186.925L265.115 181.12C265.595 179.68 266.759 176.461 267.598 176.147C267.671 176.12 267.749 176.109 267.826 176.116C267.904 176.123 267.979 176.146 268.046 176.186C268.859 176.672 269.723 178.381 268.763 181.094C267.946 183.139 266.961 185.113 265.819 186.995L262.043 195.712L260.865 197.926C260.836 197.975 260.794 198.014 260.745 198.041C260.695 198.068 260.64 198.081 260.583 198.08Z" fill="#263238"/>
<path d="M259.867 196.013C259.867 196.013 262.203 190.893 262.497 190.022C262.791 189.152 265.415 186.669 266.145 185.21C266.875 183.75 268.481 183.891 268.481 185.498C268.496 186.991 268.092 188.459 267.316 189.734C266.587 190.899 264.833 194.694 264.833 194.694L262.203 202.285" fill="white"/>
<path d="M262.183 202.605C262.15 202.611 262.115 202.611 262.081 202.605C262.001 202.576 261.936 202.517 261.899 202.44C261.862 202.364 261.856 202.276 261.883 202.195L264.513 194.605C264.596 194.419 266.292 190.765 267.022 189.574C267.771 188.352 268.159 186.944 268.142 185.51C268.142 184.986 267.943 184.627 267.604 184.544C267.265 184.461 266.753 184.685 266.414 185.363C265.808 186.362 265.101 187.295 264.302 188.147C263.72 188.751 263.209 189.418 262.779 190.138C262.484 191.021 260.219 195.949 260.142 196.154C260.104 196.226 260.04 196.281 259.963 196.307C259.886 196.334 259.802 196.33 259.727 196.296C259.653 196.263 259.594 196.202 259.563 196.127C259.532 196.052 259.531 195.967 259.559 195.891C259.559 195.84 261.889 190.771 262.177 189.939C262.614 189.126 263.168 188.382 263.822 187.731C264.58 186.913 265.257 186.024 265.844 185.075C265.984 184.692 266.251 184.369 266.6 184.159C266.95 183.95 267.361 183.866 267.764 183.923C268.096 184.023 268.381 184.238 268.57 184.528C268.759 184.819 268.838 185.167 268.795 185.51C268.812 187.063 268.39 188.59 267.579 189.914C266.868 191.053 265.134 194.803 265.115 194.842L262.503 202.406C262.477 202.468 262.432 202.521 262.375 202.556C262.318 202.592 262.251 202.609 262.183 202.605Z" fill="#263238"/>
<path d="M261.601 200.685L265.838 192.947C265.838 192.947 268.609 189.747 268.903 190.464C269.148 190.907 269.288 191.401 269.314 191.906C269.339 192.412 269.249 192.917 269.051 193.382C268.271 194.62 267.392 195.791 266.42 196.883L262.913 206.374" fill="white"/>
<path d="M262.913 206.72H262.804C262.765 206.706 262.729 206.684 262.698 206.655C262.667 206.627 262.642 206.593 262.625 206.554C262.608 206.516 262.598 206.475 262.597 206.433C262.596 206.391 262.603 206.349 262.619 206.31L266.119 196.819C266.131 196.783 266.151 196.75 266.177 196.723C267.12 195.647 267.976 194.498 268.737 193.286C268.915 192.88 268.997 192.437 268.979 191.994C268.96 191.55 268.84 191.117 268.628 190.726C267.67 191.417 266.809 192.233 266.068 193.152L261.851 200.864C261.83 200.901 261.803 200.934 261.77 200.96C261.738 200.987 261.7 201.006 261.66 201.018C261.619 201.03 261.577 201.034 261.535 201.029C261.493 201.025 261.452 201.012 261.415 200.992C261.378 200.972 261.346 200.945 261.319 200.912C261.293 200.879 261.273 200.841 261.261 200.801C261.249 200.761 261.246 200.718 261.25 200.676C261.255 200.634 261.267 200.594 261.287 200.557L265.524 192.819L265.563 192.762C266.471 191.706 268.123 189.939 268.801 190.067C268.883 190.081 268.96 190.116 269.024 190.169C269.088 190.222 269.137 190.29 269.166 190.368C269.432 190.856 269.582 191.398 269.605 191.952C269.628 192.507 269.524 193.06 269.3 193.568C268.528 194.818 267.648 195.998 266.67 197.094L263.182 206.528C263.16 206.582 263.123 206.629 263.075 206.663C263.028 206.697 262.972 206.717 262.913 206.72Z" fill="#263238"/>
<path d="M262.043 204.333C262.043 204.333 267.585 197.619 267.879 198.349C268.321 199.525 268.321 200.821 267.879 201.997C267.256 203.12 266.577 204.212 265.844 205.267C265.844 205.267 264.961 209.293 264.519 210.464C264.078 211.635 261.454 212.384 260.724 212.653L257.076 213.818" fill="white"/>
<path d="M257.076 214.138C256.991 214.15 256.905 214.129 256.836 214.078C256.767 214.027 256.721 213.95 256.708 213.866C256.695 213.781 256.717 213.694 256.768 213.625C256.819 213.556 256.895 213.51 256.98 213.498L260.628 212.326L261.095 212.16C262.011 211.84 263.905 211.174 264.225 210.33C264.647 209.197 265.505 205.21 265.505 205.178C265.515 205.139 265.533 205.102 265.556 205.069C265.556 205.069 267.003 202.97 267.566 201.83C267.945 200.817 267.97 199.705 267.636 198.675C266.855 199.2 264.391 201.933 262.26 204.518C262.234 204.551 262.201 204.578 262.164 204.597C262.127 204.617 262.086 204.629 262.044 204.632C262.003 204.636 261.96 204.631 261.921 204.618C261.881 204.605 261.844 204.584 261.812 204.557C261.747 204.503 261.706 204.426 261.698 204.342C261.689 204.258 261.714 204.174 261.767 204.109C265.217 199.936 267.259 197.869 267.835 197.958C267.905 197.967 267.971 197.995 268.027 198.039C268.082 198.083 268.124 198.142 268.148 198.208C268.436 198.912 268.788 200.768 268.148 202.118C267.53 203.238 266.855 204.326 266.126 205.376C266.011 205.907 265.217 209.446 264.801 210.554C264.385 211.661 262.785 212.237 261.287 212.762L260.827 212.928L257.153 214.106C257.129 214.12 257.103 214.131 257.076 214.138Z" fill="#263238"/>
</svg>
